<svg xmlns="http://www.w3.org/2000/svg" width="1200" height="500" viewBox="0 0 1200 500" role="img" aria-labelledby="rt rd">
<title id="rt">Loss ranking by tolerance radius</title><desc id="rd">Rank trajectories for six losses on Crack500 and DeepCrack as relaxed F1 tolerance radius increases.</desc>
<style>text{font-family:Inter,Segoe UI,Arial,sans-serif;fill:#172133}.title{font-size:22px;font-weight:700}.axis{font-size:15px}.grid{stroke:#d8dee8;stroke-width:1}.frame{stroke:#7b8797;stroke-width:1.5;fill:#fff}.line{fill:none;stroke-width:3}.pt{stroke:#fff;stroke-width:1.5}</style>
<rect x="90.0" y="65" width="502.5" height="360" class="frame"/>
<text x="341.25" y="35" text-anchor="middle" class="title">Crack500</text>
<line x1="90.0" y1="65.0" x2="592.5" y2="65.0" class="grid"/>
<text x="76.0" y="70.0" text-anchor="end" class="axis">1</text>
<line x1="90.0" y1="137.0" x2="592.5" y2="137.0" class="grid"/>
<text x="76.0" y="142.0" text-anchor="end" class="axis">2</text>
<line x1="90.0" y1="209.0" x2="592.5" y2="209.0" class="grid"/>
<text x="76.0" y="214.0" text-anchor="end" class="axis">3</text>
<line x1="90.0" y1="281.0" x2="592.5" y2="281.0" class="grid"/>
<text x="76.0" y="286.0" text-anchor="end" class="axis">4</text>
<line x1="90.0" y1="353.0" x2="592.5" y2="353.0" class="grid"/>
<text x="76.0" y="358.0" text-anchor="end" class="axis">5</text>
<line x1="90.0" y1="425.0" x2="592.5" y2="425.0" class="grid"/>
<text x="76.0" y="430.0" text-anchor="end" class="axis">6</text>
<text x="90.0" y="453" text-anchor="middle" class="axis">0</text>
<text x="215.625" y="453" text-anchor="middle" class="axis">2</text>
<text x="341.25" y="453" text-anchor="middle" class="axis">3</text>
<text x="466.875" y="453" text-anchor="middle" class="axis">4</text>
<text x="592.5" y="453" text-anchor="middle" class="axis">5</text>
<path d="M90.0,425.0 L215.6,425.0 L341.2,425.0 L466.9,425.0 L592.5,425.0" class="line" stroke="#1f4e79"/>
<circle cx="90.0" cy="425.0" r="5" fill="#1f4e79" class="pt"/>
<circle cx="215.6" cy="425.0" r="5" fill="#1f4e79" class="pt"/>
<circle cx="341.2" cy="425.0" r="5" fill="#1f4e79" class="pt"/>
<circle cx="466.9" cy="425.0" r="5" fill="#1f4e79" class="pt"/>
<circle cx="592.5" cy="425.0" r="5" fill="#1f4e79" class="pt"/>
<path d="M90.0,65.0 L215.6,65.0 L341.2,65.0 L466.9,65.0 L592.5,65.0" class="line" stroke="#2a9d8f"/>
<circle cx="90.0" cy="65.0" r="5" fill="#2a9d8f" class="pt"/>
<circle cx="215.6" cy="65.0" r="5" fill="#2a9d8f" class="pt"/>
<circle cx="341.2" cy="65.0" r="5" fill="#2a9d8f" class="pt"/>
<circle cx="466.9" cy="65.0" r="5" fill="#2a9d8f" class="pt"/>
<circle cx="592.5" cy="65.0" r="5" fill="#2a9d8f" class="pt"/>
<path d="M90.0,209.0 L215.6,137.0 L341.2,137.0 L466.9,137.0 L592.5,137.0" class="line" stroke="#6a7d2b"/>
<circle cx="90.0" cy="209.0" r="5" fill="#6a7d2b" class="pt"/>
<circle cx="215.6" cy="137.0" r="5" fill="#6a7d2b" class="pt"/>
<circle cx="341.2" cy="137.0" r="5" fill="#6a7d2b" class="pt"/>
<circle cx="466.9" cy="137.0" r="5" fill="#6a7d2b" class="pt"/>
<circle cx="592.5" cy="137.0" r="5" fill="#6a7d2b" class="pt"/>
<path d="M90.0,281.0 L215.6,353.0 L341.2,353.0 L466.9,353.0 L592.5,281.0" class="line" stroke="#9c3d32"/>
<circle cx="90.0" cy="281.0" r="5" fill="#9c3d32" class="pt"/>
<circle cx="215.6" cy="353.0" r="5" fill="#9c3d32" class="pt"/>
<circle cx="341.2" cy="353.0" r="5" fill="#9c3d32" class="pt"/>
<circle cx="466.9" cy="353.0" r="5" fill="#9c3d32" class="pt"/>
<circle cx="592.5" cy="281.0" r="5" fill="#9c3d32" class="pt"/>
<path d="M90.0,137.0 L215.6,209.0 L341.2,209.0 L466.9,281.0 L592.5,353.0" class="line" stroke="#c17c24"/>
<circle cx="90.0" cy="137.0" r="5" fill="#c17c24" class="pt"/>
<circle cx="215.6" cy="209.0" r="5" fill="#c17c24" class="pt"/>
<circle cx="341.2" cy="209.0" r="5" fill="#c17c24" class="pt"/>
<circle cx="466.9" cy="281.0" r="5" fill="#c17c24" class="pt"/>
<circle cx="592.5" cy="353.0" r="5" fill="#c17c24" class="pt"/>
<path d="M90.0,353.0 L215.6,281.0 L341.2,281.0 L466.9,209.0 L592.5,209.0" class="line" stroke="#6f42c1"/>
<circle cx="90.0" cy="353.0" r="5" fill="#6f42c1" class="pt"/>
<circle cx="215.6" cy="281.0" r="5" fill="#6f42c1" class="pt"/>
<circle cx="341.2" cy="281.0" r="5" fill="#6f42c1" class="pt"/>
<circle cx="466.9" cy="209.0" r="5" fill="#6f42c1" class="pt"/>
<circle cx="592.5" cy="209.0" r="5" fill="#6f42c1" class="pt"/>
<rect x="662.5" y="65" width="502.5" height="360" class="frame"/>
<text x="913.75" y="35" text-anchor="middle" class="title">DeepCrack</text>
<line x1="662.5" y1="65.0" x2="1165.0" y2="65.0" class="grid"/>
<text x="648.5" y="70.0" text-anchor="end" class="axis">1</text>
<line x1="662.5" y1="137.0" x2="1165.0" y2="137.0" class="grid"/>
<text x="648.5" y="142.0" text-anchor="end" class="axis">2</text>
<line x1="662.5" y1="209.0" x2="1165.0" y2="209.0" class="grid"/>
<text x="648.5" y="214.0" text-anchor="end" class="axis">3</text>
<line x1="662.5" y1="281.0" x2="1165.0" y2="281.0" class="grid"/>
<text x="648.5" y="286.0" text-anchor="end" class="axis">4</text>
<line x1="662.5" y1="353.0" x2="1165.0" y2="353.0" class="grid"/>
<text x="648.5" y="358.0" text-anchor="end" class="axis">5</text>
<line x1="662.5" y1="425.0" x2="1165.0" y2="425.0" class="grid"/>
<text x="648.5" y="430.0" text-anchor="end" class="axis">6</text>
<text x="662.5" y="453" text-anchor="middle" class="axis">0</text>
<text x="788.125" y="453" text-anchor="middle" class="axis">2</text>
<text x="913.75" y="453" text-anchor="middle" class="axis">3</text>
<text x="1039.375" y="453" text-anchor="middle" class="axis">4</text>
<text x="1165.0" y="453" text-anchor="middle" class="axis">5</text>
<path d="M662.5,281.0 L788.1,209.0 L913.8,209.0 L1039.4,281.0 L1165.0,281.0" class="line" stroke="#1f4e79"/>
<circle cx="662.5" cy="281.0" r="5" fill="#1f4e79" class="pt"/>
<circle cx="788.1" cy="209.0" r="5" fill="#1f4e79" class="pt"/>
<circle cx="913.8" cy="209.0" r="5" fill="#1f4e79" class="pt"/>
<circle cx="1039.4" cy="281.0" r="5" fill="#1f4e79" class="pt"/>
<circle cx="1165.0" cy="281.0" r="5" fill="#1f4e79" class="pt"/>
<path d="M662.5,353.0 L788.1,281.0 L913.8,281.0 L1039.4,209.0 L1165.0,209.0" class="line" stroke="#2a9d8f"/>
<circle cx="662.5" cy="353.0" r="5" fill="#2a9d8f" class="pt"/>
<circle cx="788.1" cy="281.0" r="5" fill="#2a9d8f" class="pt"/>
<circle cx="913.8" cy="281.0" r="5" fill="#2a9d8f" class="pt"/>
<circle cx="1039.4" cy="209.0" r="5" fill="#2a9d8f" class="pt"/>
<circle cx="1165.0" cy="209.0" r="5" fill="#2a9d8f" class="pt"/>
<path d="M662.5,137.0 L788.1,137.0 L913.8,137.0 L1039.4,137.0 L1165.0,137.0" class="line" stroke="#6a7d2b"/>
<circle cx="662.5" cy="137.0" r="5" fill="#6a7d2b" class="pt"/>
<circle cx="788.1" cy="137.0" r="5" fill="#6a7d2b" class="pt"/>
<circle cx="913.8" cy="137.0" r="5" fill="#6a7d2b" class="pt"/>
<circle cx="1039.4" cy="137.0" r="5" fill="#6a7d2b" class="pt"/>
<circle cx="1165.0" cy="137.0" r="5" fill="#6a7d2b" class="pt"/>
<path d="M662.5,65.0 L788.1,65.0 L913.8,65.0 L1039.4,65.0 L1165.0,65.0" class="line" stroke="#9c3d32"/>
<circle cx="662.5" cy="65.0" r="5" fill="#9c3d32" class="pt"/>
<circle cx="788.1" cy="65.0" r="5" fill="#9c3d32" class="pt"/>
<circle cx="913.8" cy="65.0" r="5" fill="#9c3d32" class="pt"/>
<circle cx="1039.4" cy="65.0" r="5" fill="#9c3d32" class="pt"/>
<circle cx="1165.0" cy="65.0" r="5" fill="#9c3d32" class="pt"/>
<path d="M662.5,209.0 L788.1,353.0 L913.8,425.0 L1039.4,425.0 L1165.0,425.0" class="line" stroke="#c17c24"/>
<circle cx="662.5" cy="209.0" r="5" fill="#c17c24" class="pt"/>
<circle cx="788.1" cy="353.0" r="5" fill="#c17c24" class="pt"/>
<circle cx="913.8" cy="425.0" r="5" fill="#c17c24" class="pt"/>
<circle cx="1039.4" cy="425.0" r="5" fill="#c17c24" class="pt"/>
<circle cx="1165.0" cy="425.0" r="5" fill="#c17c24" class="pt"/>
<path d="M662.5,425.0 L788.1,425.0 L913.8,353.0 L1039.4,353.0 L1165.0,353.0" class="line" stroke="#6f42c1"/>
<circle cx="662.5" cy="425.0" r="5" fill="#6f42c1" class="pt"/>
<circle cx="788.1" cy="425.0" r="5" fill="#6f42c1" class="pt"/>
<circle cx="913.8" cy="353.0" r="5" fill="#6f42c1" class="pt"/>
<circle cx="1039.4" cy="353.0" r="5" fill="#6f42c1" class="pt"/>
<circle cx="1165.0" cy="353.0" r="5" fill="#6f42c1" class="pt"/>
<text x="600.0" y="465" text-anchor="middle" class="axis">Tolerance radius r (px)</text>
<text transform="translate(25,245.0) rotate(-90)" text-anchor="middle" class="axis">Rank (1 = best)</text>
<line x1="145" y1="492" x2="167" y2="492" stroke="#1f4e79" stroke-width="3"/>
<text x="174" y="497" class="axis">BCE</text>
<line x1="315" y1="492" x2="337" y2="492" stroke="#2a9d8f" stroke-width="3"/>
<text x="344" y="497" class="axis">Focal</text>
<line x1="485" y1="492" x2="507" y2="492" stroke="#6a7d2b" stroke-width="3"/>
<text x="514" y="497" class="axis">BCE + Dice</text>
<line x1="655" y1="492" x2="677" y2="492" stroke="#9c3d32" stroke-width="3"/>
<text x="684" y="497" class="axis">Focal Tversky</text>
<line x1="825" y1="492" x2="847" y2="492" stroke="#c17c24" stroke-width="3"/>
<text x="854" y="497" class="axis">Dice + Boundary</text>
<line x1="995" y1="492" x2="1017" y2="492" stroke="#6f42c1" stroke-width="3"/>
<text x="1024" y="497" class="axis">Dice + clDice</text>
</svg>